<?xml version="1.0" encoding="UTF-8" standalone="no"?>
<!DOCTYPE svg PUBLIC "-//W3C//DTD SVG 1.1//EN" "http://www.w3.org/Graphics/SVG/1.1/DTD/svg11.dtd">
<svg xmlns="http://www.w3.org/2000/svg" version="1.1" viewBox="0.00 0.00 413.00 451.00">
<g stroke-width="2.00" fill="none" stroke-linecap="butt">
<path stroke="#feb0ba" vector-effect="non-scaling-stroke" d="
  M 320.20 135.74
  C 325.84 117.52 323.73 98.42 314.11 81.86
  Q 308.52 72.21 298.30 67.60
  C 281.23 59.88 262.47 66.44 250.93 80.34
  Q 244.36 88.24 242.93 97.17
  C 240.39 113.07 250.44 129.81 261.44 140.57
  Q 271.53 150.45 286.02 154.73
  C 304.04 160.06 314.85 153.02 320.20 135.74"
/>
<path stroke="#feb0ba" vector-effect="non-scaling-stroke" d="
  M 99.52 159.44
  Q 103.41 163.83 107.40 168.08
  C 115.41 176.64 128.75 174.07 136.55 166.81
  C 154.52 150.07 164.81 117.43 143.91 98.80
  C 138.01 93.54 126.72 90.07 118.99 90.30
  C 97.34 90.92 91.34 107.17 84.55 124.01
  Q 77.25 142.15 74.16 161.52
  C 73.61 164.94 72.68 171.93 79.30 169.76
  Q 89.90 166.29 98.68 159.36
  Q 99.14 159.00 99.52 159.44"
/>
<path stroke="#feb0ba" vector-effect="non-scaling-stroke" d="
  M 198.7895 185.7098
  A 31.66 27.58 90.2 0 0 226.4798 154.1463
  A 31.66 27.58 90.2 0 0 199.0105 122.3902
  A 31.66 27.58 90.2 0 0 171.3202 153.9537
  A 31.66 27.58 90.2 0 0 198.7895 185.7098"
/>
<path stroke="#feb0ba" vector-effect="non-scaling-stroke" d="
  M 116.48 349.02
  Q 144.54 376.96 179.38 395.80
  Q 186.55 399.68 193.81 403.42
  Q 199.02 406.10 202.54 406.53
  Q 207.84 407.18 212.01 405.20
  Q 223.34 399.81 243.35 388.03
  C 270.56 372.01 293.93 354.69 315.22 332.58
  C 327.54 319.78 337.29 306.19 345.37 290.65
  C 365.58 251.74 361.06 206.24 324.32 178.94
  C 313.78 171.11 301.08 164.34 287.73 162.48
  C 278.80 161.24 272.40 160.31 264.75 161.78
  C 238.52 166.79 215.04 184.46 200.67 206.70
  A 0.76 0.75 -52.8 0 1 199.53 206.86
  C 195.76 203.47 191.94 199.69 188.10 196.80
  C 165.39 179.67 139.91 172.45 111.76 181.23
  C 104.79 183.41 97.61 188.51 91.96 193.26
  C 76.06 206.66 68.87 231.01 69.05 250.75
  C 69.38 288.13 90.60 323.26 116.48 349.02"
/>
<path stroke="#feb0ba" vector-effect="non-scaling-stroke" d="
  M 249.51 110.71
  C 260.97 91.07 293.39 78.93 313.54 93.98
  Q 315.30 95.30 314.56 93.23
  C 309.49 79.09 299.48 69.22 283.83 68.85
  C 269.16 68.50 261.83 74.61 252.97 85.24
  C 246.64 92.85 246.00 101.22 247.97 110.47
  Q 248.42 112.59 249.51 110.71"
/>
<path stroke="#feb0ba" vector-effect="non-scaling-stroke" d="
  M 281.18 148.08
  Q 290.54 152.54 298.75 152.01
  C 307.51 151.44 312.23 145.36 314.94 137.71
  C 319.09 126.04 322.04 107.33 311.19 97.93
  C 304.61 92.23 292.27 91.25 284.12 92.91
  C 270.58 95.66 259.66 101.85 252.69 114.23
  C 251.72 115.96 250.79 117.50 251.51 119.00
  Q 260.90 138.41 281.18 148.08"
/>
<path stroke="#feb0ba" vector-effect="non-scaling-stroke" d="
  M 135.35 99.38
  C 123.41 92.92 106.90 93.72 98.41 105.64
  Q 95.43 109.84 92.23 117.24
  Q 82.17 140.52 78.34 163.25
  Q 78.23 163.90 78.24 164.40
  A 0.48 0.47 78.4 0 0 78.89 164.83
  C 98.70 157.13 110.65 141.20 122.97 125.19
  C 128.64 117.83 135.80 109.15 145.66 108.17
  Q 146.22 108.11 145.94 107.62
  C 143.55 103.49 139.34 101.53 135.35 99.38"
/>
<path stroke="#feb0ba" vector-effect="non-scaling-stroke" d="
  M 123.35 168.40
  C 138.66 165.43 147.64 146.37 150.08 132.98
  C 150.77 129.18 152.21 114.43 146.25 113.60
  C 139.12 112.61 133.83 119.78 129.73 124.24
  Q 127.50 126.67 125.76 129.18
  C 119.22 138.65 112.44 147.24 103.66 154.72
  A 1.53 1.52 -40.0 0 0 103.47 156.84
  C 108.50 163.00 114.57 170.11 123.35 168.40"
/>
<path stroke="#feb0ba" vector-effect="non-scaling-stroke" d="
  M 300.1981 136.2063
  A 2.88 2.88 0.0 0 0 297.2781 133.3668
  L 293.8985 133.4140
  A 2.88 2.88 0.0 0 0 291.0589 136.3340
  L 291.1019 139.4137
  A 2.88 2.88 0.0 0 0 294.0219 142.2532
  L 297.4015 142.2060
  A 2.88 2.88 0.0 0 0 300.2411 139.2860
  L 300.1981 136.2063"
/>
<path stroke="#feb0ba" vector-effect="non-scaling-stroke" d="
  M 130.00 155.92
  A 3.22 3.22 0.0 0 0 126.78 152.70
  L 123.98 152.70
  A 3.22 3.22 0.0 0 0 120.76 155.92
  L 120.76 158.96
  A 3.22 3.22 0.0 0 0 123.98 162.18
  L 126.78 162.18
  A 3.22 3.22 0.0 0 0 130.00 158.96
  L 130.00 155.92"
/>
<path stroke="#feb0ba" vector-effect="non-scaling-stroke" d="
  M 199.0360 181.3698
  A 27.51 23.15 89.8 0 0 222.0899 153.7792
  A 27.51 23.15 89.8 0 0 198.8440 126.3502
  A 27.51 23.15 89.8 0 0 175.7901 153.9408
  A 27.51 23.15 89.8 0 0 199.0360 181.3698"
/>
<path stroke="#feb0ba" vector-effect="non-scaling-stroke" d="
  M 208.88 164.72
  C 202.40 171.84 195.78 170.02 189.79 164.58
  A 0.72 0.72 0.0 0 0 188.61 164.93
  L 188.51 165.35
  A 1.55 1.54 -61.0 0 0 188.93 166.84
  Q 199.62 177.20 209.89 166.79
  Q 210.53 166.13 210.19 165.28
  L 210.04 164.93
  A 0.70 0.69 55.0 0 0 208.88 164.72"
/>
<path stroke="#feb0ba" vector-effect="non-scaling-stroke" d="
  M 297.7850 137.2672
  A 2.27 2.04 -19.1 0 0 294.9725 136.0823
  A 2.27 2.04 -19.1 0 0 293.4950 138.7528
  A 2.27 2.04 -19.1 0 0 296.3075 139.9377
  A 2.27 2.04 -19.1 0 0 297.7850 137.2672"
/>
<path stroke="#feb0ba" vector-effect="non-scaling-stroke" d="
  M 127.49 157.37
  A 2.09 2.09 0.0 0 0 125.40 155.28
  A 2.09 2.09 0.0 0 0 123.31 157.37
  A 2.09 2.09 0.0 0 0 125.40 159.46
  A 2.09 2.09 0.0 0 0 127.49 157.37"
/>
<path stroke="#feb0ba" vector-effect="non-scaling-stroke" d="
  M 203.64 211.69
  C 223.12 238.54 240.15 279.90 229.05 313.24
  C 225.62 323.51 216.23 332.48 205.04 333.13
  C 184.77 334.32 174.30 314.79 173.74 296.75
  C 172.87 268.25 181.13 237.43 197.01 212.71
  A 1.79 1.79 0.0 0 0 196.69 210.40
  Q 191.71 206.00 186.34 201.43
  Q 165.95 184.06 139.54 181.63
  C 133.12 181.04 126.84 181.96 120.51 183.20
  C 107.37 185.77 94.85 195.13 87.08 205.56
  C 76.01 220.41 72.26 241.22 74.17 259.50
  C 80.69 322.05 138.25 370.11 190.37 396.75
  C 196.24 399.75 204.68 404.78 209.21 402.20
  Q 235.64 387.12 248.43 379.41
  Q 272.64 364.82 295.69 344.95
  Q 313.70 329.44 327.85 310.34
  C 352.91 276.51 365.49 229.64 334.98 194.55
  C 318.00 175.03 290.27 162.44 263.79 166.67
  C 252.95 168.41 240.88 173.91 231.73 180.68
  C 220.69 188.85 211.98 199.31 203.66 210.20
  A 1.26 1.25 -44.4 0 0 203.64 211.69"
/>
<path stroke="#feb0ba" vector-effect="non-scaling-stroke" d="
  M 213.48 326.46
  C 237.27 310.32 226.64 265.94 217.54 245.18
  Q 212.74 234.22 206.31 224.12
  Q 203.64 219.92 201.13 215.61
  A 0.67 0.66 -26.1 0 0 200.30 215.33
  Q 200.05 215.42 199.83 215.81
  Q 180.45 248.61 178.28 286.74
  C 177.52 300.19 180.06 324.75 197.54 327.82
  C 202.47 328.69 209.18 329.37 213.48 326.46"
/>
<path stroke="#feb0ba" vector-effect="non-scaling-stroke" d="
  M 330.83 209.19
  Q 328.19 203.66 325.11 199.59
  A 1.41 1.40 -37.8 0 0 323.10 199.34
  L 322.77 199.61
  Q 321.36 200.75 322.25 202.34
  C 324.48 206.32 326.88 210.07 328.49 213.85
  C 338.32 236.84 338.79 266.26 321.73 286.23
  C 320.01 288.24 314.05 292.06 315.91 294.88
  A 1.92 1.92 0.0 0 0 318.45 295.50
  Q 320.30 294.47 322.13 292.63
  C 344.43 270.27 343.60 235.94 330.83 209.19"
/>
<path stroke="#feb0ba" vector-effect="non-scaling-stroke" d="
  M 101.86 286.18
  C 91.89 266.74 93.77 242.91 102.42 223.41
  Q 103.79 220.32 107.97 213.43
  A 2.84 2.83 40.8 0 0 107.72 210.14
  L 107.45 209.81
  A 1.22 1.22 0.0 0 0 105.54 209.85
  Q 99.34 217.98 95.25 229.99
  Q 86.94 254.33 93.49 277.94
  Q 96.17 287.59 100.06 293.21
  Q 101.10 294.71 103.25 293.72
  Q 103.67 293.52 103.78 293.07
  C 104.33 290.77 102.89 288.18 101.86 286.18"
/>
<path stroke="#feb0ba" vector-effect="non-scaling-stroke" d="
  M 187.6000 336.4550
  A 20.08 8.69 -0.1 0 0 167.5048 327.8000
  A 20.08 8.69 -0.1 0 0 147.4400 336.5250
  A 20.08 8.69 -0.1 0 0 167.5352 345.1800
  A 20.08 8.69 -0.1 0 0 187.6000 336.4550"
/>
<path stroke="#feb0ba" vector-effect="non-scaling-stroke" d="
  M 258.47 336.50
  A 20.05 8.75 0.0 0 0 238.42 327.75
  A 20.05 8.75 0.0 0 0 218.37 336.50
  A 20.05 8.75 0.0 0 0 238.42 345.25
  A 20.05 8.75 0.0 0 0 258.47 336.50"
/>
<path stroke="#feb0ba" vector-effect="non-scaling-stroke" d="
  M 183.2598 336.6629
  A 15.83 4.33 0.3 0 0 167.4527 332.2501
  A 15.83 4.33 0.3 0 0 151.6002 336.4971
  A 15.83 4.33 0.3 0 0 167.4073 340.9099
  A 15.83 4.33 0.3 0 0 183.2598 336.6629"
/>
<path stroke="#feb0ba" vector-effect="non-scaling-stroke" d="
  M 254.0399 336.6148
  A 15.69 4.25 0.2 0 0 238.3648 332.3100
  A 15.69 4.25 0.2 0 0 222.6601 336.5052
  A 15.69 4.25 0.2 0 0 238.3352 340.8100
  A 15.69 4.25 0.2 0 0 254.0399 336.6148"
/>
</g>
<path fill="#ffffff" d="
  M 0.00 0.00
  L 413.00 0.00
  L 413.00 451.00
  L 0.00 451.00
  L 0.00 0.00
  Z
  M 320.20 135.74
  C 325.84 117.52 323.73 98.42 314.11 81.86
  Q 308.52 72.21 298.30 67.60
  C 281.23 59.88 262.47 66.44 250.93 80.34
  Q 244.36 88.24 242.93 97.17
  C 240.39 113.07 250.44 129.81 261.44 140.57
  Q 271.53 150.45 286.02 154.73
  C 304.04 160.06 314.85 153.02 320.20 135.74
  Z
  M 99.52 159.44
  Q 103.41 163.83 107.40 168.08
  C 115.41 176.64 128.75 174.07 136.55 166.81
  C 154.52 150.07 164.81 117.43 143.91 98.80
  C 138.01 93.54 126.72 90.07 118.99 90.30
  C 97.34 90.92 91.34 107.17 84.55 124.01
  Q 77.25 142.15 74.16 161.52
  C 73.61 164.94 72.68 171.93 79.30 169.76
  Q 89.90 166.29 98.68 159.36
  Q 99.14 159.00 99.52 159.44
  Z
  M 198.7895 185.7098
  A 31.66 27.58 90.2 0 0 226.4798 154.1463
  A 31.66 27.58 90.2 0 0 199.0105 122.3902
  A 31.66 27.58 90.2 0 0 171.3202 153.9537
  A 31.66 27.58 90.2 0 0 198.7895 185.7098
  Z
  M 116.48 349.02
  Q 144.54 376.96 179.38 395.80
  Q 186.55 399.68 193.81 403.42
  Q 199.02 406.10 202.54 406.53
  Q 207.84 407.18 212.01 405.20
  Q 223.34 399.81 243.35 388.03
  C 270.56 372.01 293.93 354.69 315.22 332.58
  C 327.54 319.78 337.29 306.19 345.37 290.65
  C 365.58 251.74 361.06 206.24 324.32 178.94
  C 313.78 171.11 301.08 164.34 287.73 162.48
  C 278.80 161.24 272.40 160.31 264.75 161.78
  C 238.52 166.79 215.04 184.46 200.67 206.70
  A 0.76 0.75 -52.8 0 1 199.53 206.86
  C 195.76 203.47 191.94 199.69 188.10 196.80
  C 165.39 179.67 139.91 172.45 111.76 181.23
  C 104.79 183.41 97.61 188.51 91.96 193.26
  C 76.06 206.66 68.87 231.01 69.05 250.75
  C 69.38 288.13 90.60 323.26 116.48 349.02
  Z"
/>
<path fill="#fd6074" d="
  M 314.11 81.86
  C 323.73 98.42 325.84 117.52 320.20 135.74
  C 314.85 153.02 304.04 160.06 286.02 154.73
  Q 271.53 150.45 261.44 140.57
  C 250.44 129.81 240.39 113.07 242.93 97.17
  Q 244.36 88.24 250.93 80.34
  C 262.47 66.44 281.23 59.88 298.30 67.60
  Q 308.52 72.21 314.11 81.86
  Z
  M 249.51 110.71
  C 260.97 91.07 293.39 78.93 313.54 93.98
  Q 315.30 95.30 314.56 93.23
  C 309.49 79.09 299.48 69.22 283.83 68.85
  C 269.16 68.50 261.83 74.61 252.97 85.24
  C 246.64 92.85 246.00 101.22 247.97 110.47
  Q 248.42 112.59 249.51 110.71
  Z
  M 281.18 148.08
  Q 290.54 152.54 298.75 152.01
  C 307.51 151.44 312.23 145.36 314.94 137.71
  C 319.09 126.04 322.04 107.33 311.19 97.93
  C 304.61 92.23 292.27 91.25 284.12 92.91
  C 270.58 95.66 259.66 101.85 252.69 114.23
  C 251.72 115.96 250.79 117.50 251.51 119.00
  Q 260.90 138.41 281.18 148.08
  Z"
/>
<path fill="#ffffff" d="
  M 313.54 93.98
  C 293.39 78.93 260.97 91.07 249.51 110.71
  Q 248.42 112.59 247.97 110.47
  C 246.00 101.22 246.64 92.85 252.97 85.24
  C 261.83 74.61 269.16 68.50 283.83 68.85
  C 299.48 69.22 309.49 79.09 314.56 93.23
  Q 315.30 95.30 313.54 93.98
  Z"
/>
<path fill="#fd6074" d="
  M 98.68 159.36
  Q 89.90 166.29 79.30 169.76
  C 72.68 171.93 73.61 164.94 74.16 161.52
  Q 77.25 142.15 84.55 124.01
  C 91.34 107.17 97.34 90.92 118.99 90.30
  C 126.72 90.07 138.01 93.54 143.91 98.80
  C 164.81 117.43 154.52 150.07 136.55 166.81
  C 128.75 174.07 115.41 176.64 107.40 168.08
  Q 103.41 163.83 99.52 159.44
  Q 99.14 159.00 98.68 159.36
  Z
  M 135.35 99.38
  C 123.41 92.92 106.90 93.72 98.41 105.64
  Q 95.43 109.84 92.23 117.24
  Q 82.17 140.52 78.34 163.25
  Q 78.23 163.90 78.24 164.40
  A 0.48 0.47 78.4 0 0 78.89 164.83
  C 98.70 157.13 110.65 141.20 122.97 125.19
  C 128.64 117.83 135.80 109.15 145.66 108.17
  Q 146.22 108.11 145.94 107.62
  C 143.55 103.49 139.34 101.53 135.35 99.38
  Z
  M 123.35 168.40
  C 138.66 165.43 147.64 146.37 150.08 132.98
  C 150.77 129.18 152.21 114.43 146.25 113.60
  C 139.12 112.61 133.83 119.78 129.73 124.24
  Q 127.50 126.67 125.76 129.18
  C 119.22 138.65 112.44 147.24 103.66 154.72
  A 1.53 1.52 -40.0 0 0 103.47 156.84
  C 108.50 163.00 114.57 170.11 123.35 168.40
  Z"
/>
<path fill="#ffffff" d="
  M 281.18 148.08
  Q 260.90 138.41 251.51 119.00
  C 250.79 117.50 251.72 115.96 252.69 114.23
  C 259.66 101.85 270.58 95.66 284.12 92.91
  C 292.27 91.25 304.61 92.23 311.19 97.93
  C 322.04 107.33 319.09 126.04 314.94 137.71
  C 312.23 145.36 307.51 151.44 298.75 152.01
  Q 290.54 152.54 281.18 148.08
  Z
  M 300.1981 136.2063
  A 2.88 2.88 0.0 0 0 297.2781 133.3668
  L 293.8985 133.4140
  A 2.88 2.88 0.0 0 0 291.0589 136.3340
  L 291.1019 139.4137
  A 2.88 2.88 0.0 0 0 294.0219 142.2532
  L 297.4015 142.2060
  A 2.88 2.88 0.0 0 0 300.2411 139.2860
  L 300.1981 136.2063
  Z"
/>
<path fill="#ffffff" d="
  M 135.35 99.38
  C 139.34 101.53 143.55 103.49 145.94 107.62
  Q 146.22 108.11 145.66 108.17
  C 135.80 109.15 128.64 117.83 122.97 125.19
  C 110.65 141.20 98.70 157.13 78.89 164.83
  A 0.48 0.47 78.4 0 1 78.24 164.40
  Q 78.23 163.90 78.34 163.25
  Q 82.17 140.52 92.23 117.24
  Q 95.43 109.84 98.41 105.64
  C 106.90 93.72 123.41 92.92 135.35 99.38
  Z"
/>
<path fill="#ffffff" d="
  M 123.35 168.40
  C 114.57 170.11 108.50 163.00 103.47 156.84
  A 1.53 1.52 -40.0 0 1 103.66 154.72
  C 112.44 147.24 119.22 138.65 125.76 129.18
  Q 127.50 126.67 129.73 124.24
  C 133.83 119.78 139.12 112.61 146.25 113.60
  C 152.21 114.43 150.77 129.18 150.08 132.98
  C 147.64 146.37 138.66 165.43 123.35 168.40
  Z
  M 130.00 155.92
  A 3.22 3.22 0.0 0 0 126.78 152.70
  L 123.98 152.70
  A 3.22 3.22 0.0 0 0 120.76 155.92
  L 120.76 158.96
  A 3.22 3.22 0.0 0 0 123.98 162.18
  L 126.78 162.18
  A 3.22 3.22 0.0 0 0 130.00 158.96
  L 130.00 155.92
  Z"
/>
<path fill="#fd6074" d="
  M 198.7895 185.7098
  A 31.66 27.58 90.2 0 1 171.3202 153.9537
  A 31.66 27.58 90.2 0 1 199.0105 122.3902
  A 31.66 27.58 90.2 0 1 226.4798 154.1463
  A 31.66 27.58 90.2 0 1 198.7895 185.7098
  Z
  M 199.0360 181.3698
  A 27.51 23.15 89.8 0 0 222.0899 153.7792
  A 27.51 23.15 89.8 0 0 198.8440 126.3502
  A 27.51 23.15 89.8 0 0 175.7901 153.9408
  A 27.51 23.15 89.8 0 0 199.0360 181.3698
  Z"
/>
<path fill="#ffffff" d="
  M 199.0360 181.3698
  A 27.51 23.15 89.8 0 1 175.7901 153.9408
  A 27.51 23.15 89.8 0 1 198.8440 126.3502
  A 27.51 23.15 89.8 0 1 222.0899 153.7792
  A 27.51 23.15 89.8 0 1 199.0360 181.3698
  Z
  M 208.88 164.72
  C 202.40 171.84 195.78 170.02 189.79 164.58
  A 0.72 0.72 0.0 0 0 188.61 164.93
  L 188.51 165.35
  A 1.55 1.54 -61.0 0 0 188.93 166.84
  Q 199.62 177.20 209.89 166.79
  Q 210.53 166.13 210.19 165.28
  L 210.04 164.93
  A 0.70 0.69 55.0 0 0 208.88 164.72
  Z"
/>
<path fill="#fd6074" d="
  M 300.2411 139.2860
  A 2.88 2.88 0.0 0 1 297.4015 142.2060
  L 294.0219 142.2532
  A 2.88 2.88 0.0 0 1 291.1019 139.4137
  L 291.0589 136.3340
  A 2.88 2.88 0.0 0 1 293.8985 133.4140
  L 297.2781 133.3668
  A 2.88 2.88 0.0 0 1 300.1981 136.2063
  L 300.2411 139.2860
  Z
  M 297.7850 137.2672
  A 2.27 2.04 -19.1 0 0 294.9725 136.0823
  A 2.27 2.04 -19.1 0 0 293.4950 138.7528
  A 2.27 2.04 -19.1 0 0 296.3075 139.9377
  A 2.27 2.04 -19.1 0 0 297.7850 137.2672
  Z"
/>
<ellipse fill="#ffffff" cx="0.00" cy="0.00" transform="translate(295.64,138.01) rotate(-19.1)" rx="2.27" ry="2.04"/>
<path fill="#fd6074" d="
  M 130.00 158.96
  A 3.22 3.22 0.0 0 1 126.78 162.18
  L 123.98 162.18
  A 3.22 3.22 0.0 0 1 120.76 158.96
  L 120.76 155.92
  A 3.22 3.22 0.0 0 1 123.98 152.70
  L 126.78 152.70
  A 3.22 3.22 0.0 0 1 130.00 155.92
  L 130.00 158.96
  Z
  M 127.49 157.37
  A 2.09 2.09 0.0 0 0 125.40 155.28
  A 2.09 2.09 0.0 0 0 123.31 157.37
  A 2.09 2.09 0.0 0 0 125.40 159.46
  A 2.09 2.09 0.0 0 0 127.49 157.37
  Z"
/>
<circle fill="#ffffff" cx="125.40" cy="157.37" r="2.09"/>
<path fill="#fd6074" d="
  M 116.48 349.02
  C 90.60 323.26 69.38 288.13 69.05 250.75
  C 68.87 231.01 76.06 206.66 91.96 193.26
  C 97.61 188.51 104.79 183.41 111.76 181.23
  C 139.91 172.45 165.39 179.67 188.10 196.80
  C 191.94 199.69 195.76 203.47 199.53 206.86
  A 0.76 0.75 -52.8 0 0 200.67 206.70
  C 215.04 184.46 238.52 166.79 264.75 161.78
  C 272.40 160.31 278.80 161.24 287.73 162.48
  C 301.08 164.34 313.78 171.11 324.32 178.94
  C 361.06 206.24 365.58 251.74 345.37 290.65
  C 337.29 306.19 327.54 319.78 315.22 332.58
  C 293.93 354.69 270.56 372.01 243.35 388.03
  Q 223.34 399.81 212.01 405.20
  Q 207.84 407.18 202.54 406.53
  Q 199.02 406.10 193.81 403.42
  Q 186.55 399.68 179.38 395.80
  Q 144.54 376.96 116.48 349.02
  Z
  M 203.64 211.69
  C 223.12 238.54 240.15 279.90 229.05 313.24
  C 225.62 323.51 216.23 332.48 205.04 333.13
  C 184.77 334.32 174.30 314.79 173.74 296.75
  C 172.87 268.25 181.13 237.43 197.01 212.71
  A 1.79 1.79 0.0 0 0 196.69 210.40
  Q 191.71 206.00 186.34 201.43
  Q 165.95 184.06 139.54 181.63
  C 133.12 181.04 126.84 181.96 120.51 183.20
  C 107.37 185.77 94.85 195.13 87.08 205.56
  C 76.01 220.41 72.26 241.22 74.17 259.50
  C 80.69 322.05 138.25 370.11 190.37 396.75
  C 196.24 399.75 204.68 404.78 209.21 402.20
  Q 235.64 387.12 248.43 379.41
  Q 272.64 364.82 295.69 344.95
  Q 313.70 329.44 327.85 310.34
  C 352.91 276.51 365.49 229.64 334.98 194.55
  C 318.00 175.03 290.27 162.44 263.79 166.67
  C 252.95 168.41 240.88 173.91 231.73 180.68
  C 220.69 188.85 211.98 199.31 203.66 210.20
  A 1.26 1.25 -44.4 0 0 203.64 211.69
  Z
  M 213.48 326.46
  C 237.27 310.32 226.64 265.94 217.54 245.18
  Q 212.74 234.22 206.31 224.12
  Q 203.64 219.92 201.13 215.61
  A 0.67 0.66 -26.1 0 0 200.30 215.33
  Q 200.05 215.42 199.83 215.81
  Q 180.45 248.61 178.28 286.74
  C 177.52 300.19 180.06 324.75 197.54 327.82
  C 202.47 328.69 209.18 329.37 213.48 326.46
  Z"
/>
<path fill="#fd6074" d="
  M 208.88 164.72
  A 0.70 0.69 55.0 0 1 210.04 164.93
  L 210.19 165.28
  Q 210.53 166.13 209.89 166.79
  Q 199.62 177.20 188.93 166.84
  A 1.55 1.54 -61.0 0 1 188.51 165.35
  L 188.61 164.93
  A 0.72 0.72 0.0 0 1 189.79 164.58
  C 195.78 170.02 202.40 171.84 208.88 164.72
  Z"
/>
<path fill="#ffffff" d="
  M 229.05 313.24
  C 240.15 279.90 223.12 238.54 203.64 211.69
  A 1.26 1.25 -44.4 0 1 203.66 210.20
  C 211.98 199.31 220.69 188.85 231.73 180.68
  C 240.88 173.91 252.95 168.41 263.79 166.67
  C 290.27 162.44 318.00 175.03 334.98 194.55
  C 365.49 229.64 352.91 276.51 327.85 310.34
  Q 313.70 329.44 295.69 344.95
  Q 272.64 364.82 248.43 379.41
  Q 235.64 387.12 209.21 402.20
  C 204.68 404.78 196.24 399.75 190.37 396.75
  C 138.25 370.11 80.69 322.05 74.17 259.50
  C 72.26 241.22 76.01 220.41 87.08 205.56
  C 94.85 195.13 107.37 185.77 120.51 183.20
  C 126.84 181.96 133.12 181.04 139.54 181.63
  Q 165.95 184.06 186.34 201.43
  Q 191.71 206.00 196.69 210.40
  A 1.79 1.79 0.0 0 1 197.01 212.71
  C 181.13 237.43 172.87 268.25 173.74 296.75
  C 174.30 314.79 184.77 334.32 205.04 333.13
  C 216.23 332.48 225.62 323.51 229.05 313.24
  Z
  M 330.83 209.19
  Q 328.19 203.66 325.11 199.59
  A 1.41 1.40 -37.8 0 0 323.10 199.34
  L 322.77 199.61
  Q 321.36 200.75 322.25 202.34
  C 324.48 206.32 326.88 210.07 328.49 213.85
  C 338.32 236.84 338.79 266.26 321.73 286.23
  C 320.01 288.24 314.05 292.06 315.91 294.88
  A 1.92 1.92 0.0 0 0 318.45 295.50
  Q 320.30 294.47 322.13 292.63
  C 344.43 270.27 343.60 235.94 330.83 209.19
  Z
  M 101.86 286.18
  C 91.89 266.74 93.77 242.91 102.42 223.41
  Q 103.79 220.32 107.97 213.43
  A 2.84 2.83 40.8 0 0 107.72 210.14
  L 107.45 209.81
  A 1.22 1.22 0.0 0 0 105.54 209.85
  Q 99.34 217.98 95.25 229.99
  Q 86.94 254.33 93.49 277.94
  Q 96.17 287.59 100.06 293.21
  Q 101.10 294.71 103.25 293.72
  Q 103.67 293.52 103.78 293.07
  C 104.33 290.77 102.89 288.18 101.86 286.18
  Z
  M 187.6000 336.4550
  A 20.08 8.69 -0.1 0 0 167.5048 327.8000
  A 20.08 8.69 -0.1 0 0 147.4400 336.5250
  A 20.08 8.69 -0.1 0 0 167.5352 345.1800
  A 20.08 8.69 -0.1 0 0 187.6000 336.4550
  Z
  M 258.47 336.50
  A 20.05 8.75 0.0 0 0 238.42 327.75
  A 20.05 8.75 0.0 0 0 218.37 336.50
  A 20.05 8.75 0.0 0 0 238.42 345.25
  A 20.05 8.75 0.0 0 0 258.47 336.50
  Z"
/>
<path fill="#fd6074" d="
  M 330.83 209.19
  C 343.60 235.94 344.43 270.27 322.13 292.63
  Q 320.30 294.47 318.45 295.50
  A 1.92 1.92 0.0 0 1 315.91 294.88
  C 314.05 292.06 320.01 288.24 321.73 286.23
  C 338.79 266.26 338.32 236.84 328.49 213.85
  C 326.88 210.07 324.48 206.32 322.25 202.34
  Q 321.36 200.75 322.77 199.61
  L 323.10 199.34
  A 1.41 1.40 -37.8 0 1 325.11 199.59
  Q 328.19 203.66 330.83 209.19
  Z"
/>
<path fill="#fd6074" d="
  M 101.86 286.18
  C 102.89 288.18 104.33 290.77 103.78 293.07
  Q 103.67 293.52 103.25 293.72
  Q 101.10 294.71 100.06 293.21
  Q 96.17 287.59 93.49 277.94
  Q 86.94 254.33 95.25 229.99
  Q 99.34 217.98 105.54 209.85
  A 1.22 1.22 0.0 0 1 107.45 209.81
  L 107.72 210.14
  A 2.84 2.83 40.8 0 1 107.97 213.43
  Q 103.79 220.32 102.42 223.41
  C 93.77 242.91 91.89 266.74 101.86 286.18
  Z"
/>
<path fill="#ffffff" d="
  M 217.54 245.18
  C 226.64 265.94 237.27 310.32 213.48 326.46
  C 209.18 329.37 202.47 328.69 197.54 327.82
  C 180.06 324.75 177.52 300.19 178.28 286.74
  Q 180.45 248.61 199.83 215.81
  Q 200.05 215.42 200.30 215.33
  A 0.67 0.66 -26.1 0 1 201.13 215.61
  Q 203.64 219.92 206.31 224.12
  Q 212.74 234.22 217.54 245.18
  Z"
/>
<path fill="#fd6074" d="
  M 187.6000 336.4550
  A 20.08 8.69 -0.1 0 1 167.5352 345.1800
  A 20.08 8.69 -0.1 0 1 147.4400 336.5250
  A 20.08 8.69 -0.1 0 1 167.5048 327.8000
  A 20.08 8.69 -0.1 0 1 187.6000 336.4550
  Z
  M 183.2598 336.6629
  A 15.83 4.33 0.3 0 0 167.4527 332.2501
  A 15.83 4.33 0.3 0 0 151.6002 336.4971
  A 15.83 4.33 0.3 0 0 167.4073 340.9099
  A 15.83 4.33 0.3 0 0 183.2598 336.6629
  Z"
/>
<path fill="#fd6074" d="
  M 258.47 336.50
  A 20.05 8.75 0.0 0 1 238.42 345.25
  A 20.05 8.75 0.0 0 1 218.37 336.50
  A 20.05 8.75 0.0 0 1 238.42 327.75
  A 20.05 8.75 0.0 0 1 258.47 336.50
  Z
  M 254.0399 336.6148
  A 15.69 4.25 0.2 0 0 238.3648 332.3100
  A 15.69 4.25 0.2 0 0 222.6601 336.5052
  A 15.69 4.25 0.2 0 0 238.3352 340.8100
  A 15.69 4.25 0.2 0 0 254.0399 336.6148
  Z"
/>
<ellipse fill="#ffffff" cx="0.00" cy="0.00" transform="translate(167.43,336.58) rotate(0.3)" rx="15.83" ry="4.33"/>
<ellipse fill="#ffffff" cx="0.00" cy="0.00" transform="translate(238.35,336.56) rotate(0.2)" rx="15.69" ry="4.25"/>
</svg>
